<?xml version="1.0" encoding="UTF-8" standalone="no"?>
<svg
   xmlns:svg="http://www.w3.org/2000/svg"
   xmlns="http://www.w3.org/2000/svg"
   xmlns:xlink="http://www.w3.org/1999/xlink"
   version="1.1"
   viewBox="0 0 512 512"
   height="512"
   width="512">
  <g
     transform="translate(0,-540.36216)">
    <path
       style="fill:#bebebe;"
       d="m 172.89062,674.10742 a 26.0026,26.0026 0 0 0 -17.95507,7.67774 c -34.6692,33.9466 -52.47313,74.91933 -51.52149,115.82812 0.95164,40.9088 20.03471,80.13567 51.8086,112.85938 A 26.0026,26.0026 0 1 0 192.5293,874.25 c -24.67284,-25.41038 -36.53356,-52.25313 -37.12891,-77.8457 -0.59535,-25.59258 9.44974,-51.55212 35.91406,-77.46485 a 26.0026,26.0026 0 0 0 -18.42383,-44.83203 z" />
    <path
       style="fill:#bebebe;"
       d="m 322,796.36218 a 66,66 0 0 1 -66,66 66,66 0 0 1 -66,-66 66,66 0 0 1 66,-66 66,66 0 0 1 66,66 z" />
    <path
       style="fill:#bebebe;"
       d="m 338.32617,674.10352 a 26.0026,26.0026 0 0 0 -17.64062,44.83593 c 26.46432,25.91273 36.50941,51.87227 35.91406,77.46485 -0.59535,25.59257 -12.45607,52.43532 -37.12891,77.8457 a 26.0026,26.0026 0 1 0 37.30664,36.22461 c 31.77389,-32.7237 50.85696,-71.95253 51.8086,-112.86133 0.95164,-40.90879 -16.85033,-81.88152 -51.51953,-115.82812 a 26.0026,26.0026 0 0 0 -18.74024,-7.68164 z" />
  </g>
</svg>
